<svg xmlns="http://www.w3.org/2000/svg" xmlns:xlink="http://www.w3.org/1999/xlink" viewBox="0 0 270.59 66.16"><defs><clipPath id="clip-path" transform="translate(-0.16 -0.08)"><rect width="63.96" height="66.24" fill="none"/></clipPath></defs><g id="Warstwa_2" data-name="Warstwa 2"><g id="Tryb_izolacji" data-name="Tryb izolacji"><g clip-path="url(#clip-path)"><path d="M9.4,56a31.4,31.4,0,1,1,1.41,1.38" transform="translate(-0.16 -0.08)" fill="none" stroke="#fff" stroke-miterlimit="22.93" stroke-width="0.98"/></g><rect x="31.43" y="5.91" width="1.47" height="3.32" fill="#fff"/><rect x="31.43" y="59.44" width="1.47" height="3.36" fill="#fff"/><rect x="57.17" y="33.4" width="3.51" height="1.47" fill="#fff"/><g clip-path="url(#clip-path)"><path d="M19.42,54.46v5.32A28.33,28.33,0,1,0,32,6.05,28.11,28.11,0,0,0,18.59,9.42c.27,0,.55,0,.83,0V42" transform="translate(-0.16 -0.08)" fill="none" stroke="#fff" stroke-miterlimit="22.93" stroke-width="1.33"/><path d="M9.24,55.79a31.35,31.35,0,1,1,1.57,1.55" transform="translate(-0.16 -0.08)" fill="none" stroke="#fff" stroke-miterlimit="22.93" stroke-width="1.16"/></g><polygon points="24.5 32.53 28.54 32.53 29.85 30.96 30.29 31.37 31.2 31.21 26.34 26.06 32.12 26.06 24.07 17.73 27.97 17.73 22.1 9.86 25.52 9.86 21.71 4.76 23.75 4.76 20.03 0.5 16.25 4.77 18.15 4.77 14.01 9.86 17.61 9.86 11.35 17.73 14.98 17.73 7.13 26.06 12.28 26.06 6.33 32.57 13.43 32.53 3.55 43.25 13.13 43.25 9.5 49.39 14.48 49.39 26.63 34.82 24.5 32.53" fill="#fff" fill-rule="evenodd"/><polygon points="24.5 32.53 28.54 32.53 29.85 30.96 30.29 31.37 31.2 31.21 26.34 26.06 32.12 26.06 24.07 17.73 27.97 17.73 22.1 9.86 25.52 9.86 21.71 4.76 23.75 4.76 20.03 0.5 16.25 4.77 18.15 4.77 14.01 9.86 17.61 9.86 11.35 17.73 14.98 17.73 7.13 26.06 12.28 26.06 6.33 32.57 13.43 32.53 3.55 43.25 13.13 43.25 9.5 49.39 14.48 49.39 26.63 34.82 24.5 32.53" fill="none" stroke="#fff" stroke-miterlimit="22.93" stroke-width="0.67"/><polygon points="34.44 43.25 31.43 40.01 27.48 43.25 34.44 43.25" fill="#fff"/><polygon points="34.44 43.25 31.43 40.01 27.48 43.25 34.44 43.25" fill="none" stroke="#fff" stroke-miterlimit="22.93" stroke-width="0.67"/><polygon points="16.82 58.9 18.72 59.88 20.43 60.63 20.36 49.39 27.7 49.39 25.15 45.16 16.79 52.02 16.82 58.9" fill="#fff"/><polygon points="16.82 58.9 18.72 59.88 20.43 60.63 20.36 49.39 27.7 49.39 25.15 45.16 16.79 52.02 16.82 58.9" fill="none" stroke="#fff" stroke-miterlimit="22.93" stroke-width="0.67"/><polyline points="14.48 49.39 2.57 63.68 16.71 52.09" fill="none" stroke="#fff" stroke-miterlimit="22.93" stroke-width="0.67"/><line x1="25.15" y1="45.16" x2="27.36" y2="43.36" fill="none" stroke="#fff" stroke-miterlimit="22.93" stroke-width="0.67"/><line x1="28.54" y1="32.53" x2="26.63" y2="34.82" fill="none" stroke="#fff" stroke-miterlimit="22.93" stroke-width="0.67"/><line x1="31.43" y1="40.01" x2="35.28" y2="36.91" fill="none" stroke="#fff" stroke-miterlimit="22.93" stroke-width="0.67"/><g clip-path="url(#clip-path)"><path d="M62.11,5.14l-26.52,32L29.93,31.4ZM31.16,32.74a1.8,1.8,0,0,0,0,2.62,1.85,1.85,0,1,0,2.62-2.61,1.84,1.84,0,0,0-2.61,0" transform="translate(-0.16 -0.08)" fill="#fff" fill-rule="evenodd"/><path d="M62.11,5.14l-26.52,32L29.93,31.4ZM31.16,32.74a1.8,1.8,0,0,0,0,2.62,1.85,1.85,0,1,0,2.62-2.61A1.84,1.84,0,0,0,31.16,32.74Z" transform="translate(-0.16 -0.08)" fill="none" stroke="#fff" stroke-miterlimit="22.93" stroke-width="0.21"/></g><path d="M76.29,23.19v-10h3.24a11.83,11.83,0,0,1,2.41.15,2.59,2.59,0,0,1,1.44,1A3.08,3.08,0,0,1,84,16.25a3.32,3.32,0,0,1-.33,1.55,2.76,2.76,0,0,1-.85,1,3,3,0,0,1-1,.47,11,11,0,0,1-2.1.15H78.31v3.78Zm2-8.33V17.7h1.11a5.47,5.47,0,0,0,1.6-.15,1.31,1.31,0,0,0,.63-.5,1.35,1.35,0,0,0,.23-.78,1.32,1.32,0,0,0-.32-.9,1.47,1.47,0,0,0-.82-.44,9,9,0,0,0-1.45-.07Z" transform="translate(-0.16 -0.08)" fill="#fff"/><path d="M87.45,23.19H85.53V15.93h1.78v1a3.16,3.16,0,0,1,.83-1,1.54,1.54,0,0,1,.83-.23,2.41,2.41,0,0,1,1.26.36l-.59,1.68a1.73,1.73,0,0,0-.9-.32,1.08,1.08,0,0,0-.69.23,1.46,1.46,0,0,0-.44.8,11.23,11.23,0,0,0-.16,2.43Z" transform="translate(-0.16 -0.08)" fill="#fff"/><path d="M90.29,23.19v-1.5L93,18.56q.66-.76,1-1.08l-.88,0-2.57,0V15.93h6v1.36l-2.78,3.2-1,1.05,1,0h3v1.69Z" transform="translate(-0.16 -0.08)" fill="#fff"/><path d="M102.26,20.87l1.92.33A3.19,3.19,0,0,1,103,22.8a3.38,3.38,0,0,1-2,.55,3.23,3.23,0,0,1-2.8-1.24,4.13,4.13,0,0,1-.72-2.5,4,4,0,0,1,.94-2.83,3.12,3.12,0,0,1,2.39-1,3.21,3.21,0,0,1,2.55,1.07,4.7,4.7,0,0,1,.9,3.28H99.47a2,2,0,0,0,.46,1.33,1.45,1.45,0,0,0,1.11.47,1.21,1.21,0,0,0,.76-.24A1.54,1.54,0,0,0,102.26,20.87Zm.11-1.94a1.77,1.77,0,0,0-.43-1.26,1.37,1.37,0,0,0-2,0,1.75,1.75,0,0,0-.41,1.24Z" transform="translate(-0.16 -0.08)" fill="#fff"/><path d="M112.5,23.19h-1.78V22.12a3.07,3.07,0,0,1-1,.93,2.71,2.71,0,0,1-1.22.3,2.77,2.77,0,0,1-2.14-1,4.07,4.07,0,0,1-.89-2.81,4.06,4.06,0,0,1,.86-2.81,2.84,2.84,0,0,1,2.2-1,2.72,2.72,0,0,1,2.1,1V13.16h1.92Zm-5.12-3.79a3.28,3.28,0,0,0,.32,1.68,1.45,1.45,0,0,0,1.3.75,1.43,1.43,0,0,0,1.13-.56,2.62,2.62,0,0,0,.46-1.69,2.86,2.86,0,0,0-.45-1.8,1.43,1.43,0,0,0-1.16-.55,1.45,1.45,0,0,0-1.14.54A2.48,2.48,0,0,0,107.38,19.4Z" transform="translate(-0.16 -0.08)" fill="#fff"/><path d="M113.72,21.11l1.93-.29a1.4,1.4,0,0,0,.5.85,1.64,1.64,0,0,0,1,.29,1.91,1.91,0,0,0,1.12-.27.61.61,0,0,0,.25-.51.52.52,0,0,0-.13-.37,1.62,1.62,0,0,0-.64-.25,10,10,0,0,1-3-.94A1.84,1.84,0,0,1,114,18a2,2,0,0,1,.74-1.59,3.54,3.54,0,0,1,2.31-.64,4,4,0,0,1,2.22.49,2.52,2.52,0,0,1,1,1.43l-1.82.34a1.05,1.05,0,0,0-.44-.65,1.58,1.58,0,0,0-.92-.23,2.11,2.11,0,0,0-1.09.21.45.45,0,0,0-.22.39.43.43,0,0,0,.19.35,7.07,7.07,0,0,0,1.8.54,5.44,5.44,0,0,1,2.14.86,1.77,1.77,0,0,1,.6,1.43,2.21,2.21,0,0,1-.83,1.71,3.7,3.7,0,0,1-2.47.72,4.07,4.07,0,0,1-2.35-.6A2.81,2.81,0,0,1,113.72,21.11Z" transform="translate(-0.16 -0.08)" fill="#fff"/><path d="M122.18,14.94V13.16h1.92v1.78Zm0,8.25V15.93h1.92v7.26Z" transform="translate(-0.16 -0.08)" fill="#fff"/><path d="M130.28,20.87l1.91.33A3.11,3.11,0,0,1,131,22.8a3.42,3.42,0,0,1-2,.55,3.24,3.24,0,0,1-2.8-1.24,4.13,4.13,0,0,1-.72-2.5,4,4,0,0,1,.95-2.83,3.1,3.1,0,0,1,2.38-1,3.25,3.25,0,0,1,2.56,1.07,4.75,4.75,0,0,1,.89,3.28h-4.81a2,2,0,0,0,.47,1.33,1.42,1.42,0,0,0,1.1.47,1.19,1.19,0,0,0,.76-.24A1.55,1.55,0,0,0,130.28,20.87Zm.11-1.94a1.87,1.87,0,0,0-.43-1.26,1.34,1.34,0,0,0-1-.44,1.32,1.32,0,0,0-1,.46,1.75,1.75,0,0,0-.4,1.24Zm-.17,4.26a1,1,0,0,0-.24.22,1.27,1.27,0,0,0-.18.27,1.48,1.48,0,0,0-.12.29,1.45,1.45,0,0,0,0,.28.6.6,0,0,0,.12.38.48.48,0,0,0,.4.15,1,1,0,0,0,.28,0l.29-.08V25.8a2.47,2.47,0,0,1-1,.27A1.93,1.93,0,0,1,129,26a1.32,1.32,0,0,1-.46-.28,1.22,1.22,0,0,1-.29-.42,1.35,1.35,0,0,1-.09-.5,1.73,1.73,0,0,1,.24-.83,2.69,2.69,0,0,1,.64-.75Z" transform="translate(-0.16 -0.08)" fill="#fff"/><path d="M133.78,23.19v-10h1.92v3.61a2.72,2.72,0,0,1,2.1-1,2.84,2.84,0,0,1,2.2,1,4,4,0,0,1,.87,2.76,4.19,4.19,0,0,1-.89,2.86,2.77,2.77,0,0,1-2.15,1A2.67,2.67,0,0,1,136.6,23a3,3,0,0,1-1-.92v1.07Zm1.9-3.79a3.07,3.07,0,0,0,.36,1.67,1.52,1.52,0,0,0,1.33.76,1.36,1.36,0,0,0,1.08-.54,2.65,2.65,0,0,0,.45-1.71,2.86,2.86,0,0,0-.45-1.8,1.43,1.43,0,0,0-1.16-.55,1.45,1.45,0,0,0-1.15.54A2.5,2.5,0,0,0,135.68,19.4Z" transform="translate(-0.16 -0.08)" fill="#fff"/><path d="M142.41,14.94V13.16h1.92v1.78Zm0,8.25V15.93h1.92v7.26Z" transform="translate(-0.16 -0.08)" fill="#fff"/><path d="M145.86,19.45a3.85,3.85,0,0,1,.47-1.85,3.26,3.26,0,0,1,1.33-1.37,4,4,0,0,1,1.94-.47,3.66,3.66,0,0,1,2.7,1.07,3.7,3.7,0,0,1,1,2.7,3.8,3.8,0,0,1-1.06,2.74,3.6,3.6,0,0,1-2.68,1.08,4.18,4.18,0,0,1-1.9-.45,3,3,0,0,1-1.38-1.32A4.38,4.38,0,0,1,145.86,19.45Zm2,.11a2.4,2.4,0,0,0,.51,1.65,1.68,1.68,0,0,0,2.52,0,2.44,2.44,0,0,0,.51-1.67,2.39,2.39,0,0,0-.51-1.64,1.68,1.68,0,0,0-2.52,0A2.42,2.42,0,0,0,147.83,19.56Z" transform="translate(-0.16 -0.08)" fill="#fff"/><path d="M156.69,23.19h-1.92V15.93h1.78v1a3.16,3.16,0,0,1,.83-1,1.54,1.54,0,0,1,.83-.23,2.41,2.41,0,0,1,1.26.36l-.59,1.68a1.7,1.7,0,0,0-.9-.32,1.08,1.08,0,0,0-.69.23,1.53,1.53,0,0,0-.44.8,12,12,0,0,0-.16,2.43Z" transform="translate(-0.16 -0.08)" fill="#fff"/><path d="M159.62,21.11l1.93-.29a1.4,1.4,0,0,0,.5.85,1.64,1.64,0,0,0,1,.29,1.91,1.91,0,0,0,1.12-.27.62.62,0,0,0,.26-.51.53.53,0,0,0-.14-.37,1.55,1.55,0,0,0-.64-.25,10.12,10.12,0,0,1-2.95-.94,1.87,1.87,0,0,1-.86-1.63,2,2,0,0,1,.75-1.59,3.5,3.5,0,0,1,2.31-.64,4,4,0,0,1,2.21.49,2.47,2.47,0,0,1,1,1.43l-1.81.34a1.14,1.14,0,0,0-.44-.65,1.64,1.64,0,0,0-.93-.23,2.11,2.11,0,0,0-1.09.21.47.47,0,0,0-.22.39.42.42,0,0,0,.2.35,6.93,6.93,0,0,0,1.79.54,5.37,5.37,0,0,1,2.14.86,1.77,1.77,0,0,1,.61,1.43,2.19,2.19,0,0,1-.84,1.71,3.68,3.68,0,0,1-2.47.72,4,4,0,0,1-2.34-.6A2.78,2.78,0,0,1,159.62,21.11Z" transform="translate(-0.16 -0.08)" fill="#fff"/><path d="M171.42,15.93v1.53H170.1v2.92a8.16,8.16,0,0,0,0,1,.41.41,0,0,0,.17.24.59.59,0,0,0,.33.1,2.39,2.39,0,0,0,.77-.19l.16,1.49a3.8,3.8,0,0,1-1.51.29,2.54,2.54,0,0,1-.94-.17,1.35,1.35,0,0,1-.61-.46,1.74,1.74,0,0,1-.27-.74,9.71,9.71,0,0,1-.06-1.36V17.46h-.89V15.93h.89V14.48l1.92-1.12v2.57Z" transform="translate(-0.16 -0.08)" fill="#fff"/><path d="M174.1,23.19l-2.29-7.26h1.86L175,20.68l1.25-4.75h1.86l1.21,4.75,1.38-4.75h1.9l-2.33,7.26h-1.85l-1.25-4.67L176,23.19Z" transform="translate(-0.16 -0.08)" fill="#fff"/><path d="M183.19,19.45a3.87,3.87,0,0,1,.48-1.85A3.26,3.26,0,0,1,185,16.23a4,4,0,0,1,1.93-.47,3.63,3.63,0,0,1,2.7,1.07,3.67,3.67,0,0,1,1.06,2.7,3.77,3.77,0,0,1-1.07,2.74A3.58,3.58,0,0,1,187,23.35,4.26,4.26,0,0,1,185,22.9a3.07,3.07,0,0,1-1.37-1.32A4.38,4.38,0,0,1,183.19,19.45Zm2,.11a2.35,2.35,0,0,0,.52,1.65,1.68,1.68,0,0,0,2.52,0,2.44,2.44,0,0,0,.51-1.67,2.39,2.39,0,0,0-.51-1.64,1.68,1.68,0,0,0-2.52,0A2.38,2.38,0,0,0,185.16,19.56Z" transform="translate(-0.16 -0.08)" fill="#fff"/><path d="M196.09,23.19v-10h3.25a11.9,11.9,0,0,1,2.41.15,2.63,2.63,0,0,1,1.44,1,3.08,3.08,0,0,1,.58,1.95,3.32,3.32,0,0,1-.33,1.55,2.78,2.78,0,0,1-.86,1,2.92,2.92,0,0,1-1,.47,11.17,11.17,0,0,1-2.1.15h-1.32v3.78Zm2-8.33V17.7h1.1a5.42,5.42,0,0,0,1.6-.15,1.39,1.39,0,0,0,.64-.5,1.35,1.35,0,0,0,.23-.78,1.28,1.28,0,0,0-.33-.9,1.41,1.41,0,0,0-.81-.44,9.11,9.11,0,0,0-1.46-.07Z" transform="translate(-0.16 -0.08)" fill="#fff"/><path d="M206.85,18.14l-1.74-.31a2.68,2.68,0,0,1,1-1.56,3.69,3.69,0,0,1,2.14-.51,4.47,4.47,0,0,1,1.91.31,1.88,1.88,0,0,1,.88.77,3.79,3.79,0,0,1,.26,1.72l0,2.24a7.92,7.92,0,0,0,.09,1.41,4.16,4.16,0,0,0,.35,1h-1.9c-.05-.13-.11-.32-.19-.57a1.32,1.32,0,0,0-.07-.23,3.29,3.29,0,0,1-1,.72,3,3,0,0,1-1.19.24,2.46,2.46,0,0,1-1.77-.61,2.14,2.14,0,0,1-.35-2.63,1.84,1.84,0,0,1,.82-.74,6.49,6.49,0,0,1,1.53-.45,10.85,10.85,0,0,0,1.86-.47v-.19a1,1,0,0,0-.27-.79,1.62,1.62,0,0,0-1-.24,1.41,1.41,0,0,0-.8.2A1.45,1.45,0,0,0,206.85,18.14Zm2.57,1.56a11.19,11.19,0,0,1-1.16.29,3.57,3.57,0,0,0-1,.34.8.8,0,0,0-.38.67.94.94,0,0,0,.3.7,1,1,0,0,0,.77.3,1.64,1.64,0,0,0,1-.35,1.18,1.18,0,0,0,.46-.63,4,4,0,0,0,.07-.94Z" transform="translate(-0.16 -0.08)" fill="#fff"/><path d="M219.81,23.19h-1.92V19.48a5.31,5.31,0,0,0-.13-1.52,1,1,0,0,0-.4-.54,1.17,1.17,0,0,0-.66-.19,1.56,1.56,0,0,0-.9.27,1.45,1.45,0,0,0-.54.73,6.16,6.16,0,0,0-.15,1.67v3.29h-1.92V15.93H215V17a3,3,0,0,1,3.56-1,1.93,1.93,0,0,1,.8.59,2,2,0,0,1,.37.8,6,6,0,0,1,.11,1.29ZM215.45,15l.94-2h2.15l-1.88,2Z" transform="translate(-0.16 -0.08)" fill="#fff"/><path d="M221.08,21.11l1.93-.29a1.4,1.4,0,0,0,.5.85,1.64,1.64,0,0,0,1.05.29,1.91,1.91,0,0,0,1.12-.27.61.61,0,0,0,.25-.51.52.52,0,0,0-.13-.37,1.62,1.62,0,0,0-.65-.25,9.91,9.91,0,0,1-2.94-.94,1.84,1.84,0,0,1-.86-1.63,2,2,0,0,1,.74-1.59,3.54,3.54,0,0,1,2.31-.64,4,4,0,0,1,2.22.49,2.46,2.46,0,0,1,1,1.43L225.8,18a1.05,1.05,0,0,0-.44-.65,1.58,1.58,0,0,0-.92-.23,2.11,2.11,0,0,0-1.09.21.45.45,0,0,0-.22.39.41.41,0,0,0,.19.35,6.91,6.91,0,0,0,1.8.54,5.44,5.44,0,0,1,2.14.86,1.77,1.77,0,0,1,.6,1.43,2.21,2.21,0,0,1-.83,1.71,3.7,3.7,0,0,1-2.47.72,4.07,4.07,0,0,1-2.35-.6A2.77,2.77,0,0,1,221.08,21.11Z" transform="translate(-0.16 -0.08)" fill="#fff"/><path d="M232.87,15.93v1.53h-1.31v2.92a6.49,6.49,0,0,0,0,1,.37.37,0,0,0,.17.24.55.55,0,0,0,.32.1,2.28,2.28,0,0,0,.77-.19l.17,1.49a3.85,3.85,0,0,1-1.52.29,2.54,2.54,0,0,1-.94-.17,1.41,1.41,0,0,1-.61-.46,1.74,1.74,0,0,1-.27-.74,9.71,9.71,0,0,1-.06-1.36V17.46h-.88V15.93h.88V14.48l1.93-1.12v2.57Z" transform="translate(-0.16 -0.08)" fill="#fff"/><path d="M235.56,23.19l-2.3-7.26h1.87l1.36,4.75,1.25-4.75h1.85l1.21,4.75,1.39-4.75h1.89l-2.33,7.26h-1.84l-1.26-4.67-1.23,4.67Z" transform="translate(-0.16 -0.08)" fill="#fff"/><path d="M244.65,19.45a4,4,0,0,1,.47-1.85,3.28,3.28,0,0,1,1.34-1.37,4,4,0,0,1,1.93-.47,3.63,3.63,0,0,1,2.7,1.07,3.7,3.7,0,0,1,1,2.7,3.76,3.76,0,0,1-1.06,2.74,3.6,3.6,0,0,1-2.68,1.08,4.21,4.21,0,0,1-1.9-.45,3.09,3.09,0,0,1-1.38-1.32A4.5,4.5,0,0,1,244.65,19.45Zm2,.11a2.4,2.4,0,0,0,.51,1.65,1.69,1.69,0,0,0,2.53,0,2.44,2.44,0,0,0,.51-1.67,2.39,2.39,0,0,0-.51-1.64,1.69,1.69,0,0,0-2.53,0A2.42,2.42,0,0,0,246.62,19.56Z" transform="translate(-0.16 -0.08)" fill="#fff"/><path d="M255,23.19l-2.3-7.26h1.87l1.36,4.75,1.25-4.75H259l1.21,4.75,1.39-4.75h1.89l-2.33,7.26h-1.84l-1.25-4.67-1.23,4.67Z" transform="translate(-0.16 -0.08)" fill="#fff"/><path d="M268.74,20.87l1.91.33a3.11,3.11,0,0,1-1.16,1.6,3.41,3.41,0,0,1-2,.55,3.25,3.25,0,0,1-2.81-1.24,4.13,4.13,0,0,1-.72-2.5,4,4,0,0,1,.95-2.83,3.1,3.1,0,0,1,2.38-1,3.23,3.23,0,0,1,2.56,1.07,4.75,4.75,0,0,1,.9,3.28h-4.82a2,2,0,0,0,.47,1.33,1.42,1.42,0,0,0,1.11.47,1.16,1.16,0,0,0,.75-.24A1.55,1.55,0,0,0,268.74,20.87Zm.11-1.94a1.82,1.82,0,0,0-.43-1.26,1.34,1.34,0,0,0-1-.44,1.32,1.32,0,0,0-1,.46,1.75,1.75,0,0,0-.4,1.24Z" transform="translate(-0.16 -0.08)" fill="#fff"/><path d="M76.29,30h4a12.36,12.36,0,0,1,1.77.1,2.7,2.7,0,0,1,1.05.42,2.67,2.67,0,0,1,.77.83,2.39,2.39,0,0,1-.07,2.47,2.45,2.45,0,0,1-1,.88,2.66,2.66,0,0,1,1.41.91,2.46,2.46,0,0,1,.49,1.51,3,3,0,0,1-.32,1.33,2.66,2.66,0,0,1-.87,1,2.83,2.83,0,0,1-1.35.48c-.34,0-1.16.06-2.44.07H76.29Zm2,1.67V34h1.32a14.12,14.12,0,0,0,1.47,0,1.38,1.38,0,0,0,.82-.35,1.06,1.06,0,0,0,.3-.79A1.09,1.09,0,0,0,82,32a1.11,1.11,0,0,0-.76-.35c-.2,0-.78,0-1.73,0Zm0,4V38.3h1.87a9.45,9.45,0,0,0,1.39-.06,1.29,1.29,0,0,0,.73-.4A1.26,1.26,0,0,0,82.6,37a1.34,1.34,0,0,0-.22-.76,1.3,1.3,0,0,0-.63-.46,6.81,6.81,0,0,0-1.8-.14Z" transform="translate(-0.16 -0.08)" fill="#fff"/><path d="M86.38,31.74V30H88.3v1.78Zm0,8.25V32.73H88.3V40Z" transform="translate(-0.16 -0.08)" fill="#fff"/><path d="M95.05,40V38.9a2.7,2.7,0,0,1-1,.91,2.86,2.86,0,0,1-1.36.34,2.74,2.74,0,0,1-1.32-.32,2,2,0,0,1-.84-.9,4.12,4.12,0,0,1-.26-1.61V32.73h1.92v3.33a9.22,9.22,0,0,0,.11,1.88,1,1,0,0,0,.39.54,1.13,1.13,0,0,0,.71.21,1.52,1.52,0,0,0,.88-.27,1.36,1.36,0,0,0,.53-.67,7.48,7.48,0,0,0,.15-2V32.73h1.92V40Z" transform="translate(-0.16 -0.08)" fill="#fff"/><path d="M100.66,40H98.74V32.73h1.79v1a3.15,3.15,0,0,1,.82-1,1.54,1.54,0,0,1,.83-.23,2.47,2.47,0,0,1,1.27.36l-.6,1.68a1.67,1.67,0,0,0-.9-.32,1,1,0,0,0-.68.23,1.47,1.47,0,0,0-.45.8,12,12,0,0,0-.16,2.43Z" transform="translate(-0.16 -0.08)" fill="#fff"/><path d="M103.83,36.25a4,4,0,0,1,.47-1.85A3.28,3.28,0,0,1,105.64,33a4,4,0,0,1,1.93-.47,3.63,3.63,0,0,1,2.7,1.07,3.7,3.7,0,0,1,1,2.7,3.76,3.76,0,0,1-1.06,2.74,3.6,3.6,0,0,1-2.68,1.08,4.21,4.21,0,0,1-1.9-.45,3.09,3.09,0,0,1-1.38-1.32A4.5,4.5,0,0,1,103.83,36.25Zm2,.11a2.4,2.4,0,0,0,.51,1.65,1.69,1.69,0,0,0,2.53,0,2.44,2.44,0,0,0,.51-1.67,2.39,2.39,0,0,0-.51-1.64,1.69,1.69,0,0,0-2.53,0A2.42,2.42,0,0,0,105.8,36.36Z" transform="translate(-0.16 -0.08)" fill="#fff"/><path d="M116.72,30h2v5.43a11.7,11.7,0,0,0,.07,1.68,1.62,1.62,0,0,0,.62,1,2.16,2.16,0,0,0,1.34.38,2,2,0,0,0,1.3-.36,1.37,1.37,0,0,0,.52-.86,11.11,11.11,0,0,0,.09-1.7V30h2v5.27a13.39,13.39,0,0,1-.17,2.55,2.86,2.86,0,0,1-.6,1.25,3,3,0,0,1-1.18.82,5.19,5.19,0,0,1-1.93.31,5.39,5.39,0,0,1-2.18-.34,3.08,3.08,0,0,1-1.17-.86,2.68,2.68,0,0,1-.57-1.11,12.39,12.39,0,0,1-.19-2.54Z" transform="translate(-0.16 -0.08)" fill="#fff"/><path d="M128.66,40h-1.92V32.73h1.79v1a3.15,3.15,0,0,1,.82-1,1.54,1.54,0,0,1,.83-.23,2.47,2.47,0,0,1,1.27.36l-.6,1.68a1.67,1.67,0,0,0-.9-.32,1,1,0,0,0-.68.23,1.47,1.47,0,0,0-.45.8,12,12,0,0,0-.16,2.43Z" transform="translate(-0.16 -0.08)" fill="#fff"/><path d="M131.5,40v-1.5l2.72-3.13q.67-.77,1-1.08l-.88,0-2.56,0V32.73h6v1.36L135,37.28l-1,1.06,1,0h3V40Z" transform="translate(-0.16 -0.08)" fill="#fff"/><path d="M140.71,34.94,139,34.63a2.63,2.63,0,0,1,1-1.56,3.68,3.68,0,0,1,2.13-.51,4.41,4.41,0,0,1,1.91.31,1.91,1.91,0,0,1,.89.77,3.94,3.94,0,0,1,.26,1.72l0,2.24a7.92,7.92,0,0,0,.09,1.41,4.1,4.1,0,0,0,.34,1h-1.9q-.08-.2-.18-.57c0-.12-.06-.19-.07-.23a3.52,3.52,0,0,1-1.05.72,3.06,3.06,0,0,1-1.2.24,2.46,2.46,0,0,1-1.77-.61,2,2,0,0,1-.64-1.54,2.09,2.09,0,0,1,.29-1.09,1.87,1.87,0,0,1,.83-.74,6.53,6.53,0,0,1,1.52-.45,11.31,11.31,0,0,0,1.87-.47v-.19a1,1,0,0,0-.27-.79,1.65,1.65,0,0,0-1-.24,1.14,1.14,0,0,0-1.26.91Zm2.57,1.56c-.25.08-.64.18-1.17.29a3.81,3.81,0,0,0-1.05.34.79.79,0,0,0-.37.67.94.94,0,0,0,.3.7,1,1,0,0,0,.77.3,1.68,1.68,0,0,0,1-.35,1.16,1.16,0,0,0,.45-.63,3.8,3.8,0,0,0,.08-.94ZM145.15,40a1,1,0,0,0-.24.22,1.27,1.27,0,0,0-.18.27,1.48,1.48,0,0,0-.12.29,1.45,1.45,0,0,0,0,.28.6.6,0,0,0,.12.38.48.48,0,0,0,.4.15,1,1,0,0,0,.28,0l.29-.09V42.6a2.47,2.47,0,0,1-1,.27,1.93,1.93,0,0,1-.67-.1,1.47,1.47,0,0,1-.47-.28,1.24,1.24,0,0,1-.37-.92,1.73,1.73,0,0,1,.24-.83A2.69,2.69,0,0,1,144,40Z" transform="translate(-0.16 -0.08)" fill="#fff"/><path d="M153.72,40h-1.79V38.92a2.9,2.9,0,0,1-1.05.93,2.71,2.71,0,0,1-1.22.3,2.78,2.78,0,0,1-2.14-1,4.12,4.12,0,0,1-.89-2.81,4.06,4.06,0,0,1,.87-2.81,2.83,2.83,0,0,1,2.19-1,2.75,2.75,0,0,1,2.11,1V30h1.92Zm-5.13-3.79a3.39,3.39,0,0,0,.32,1.68,1.45,1.45,0,0,0,1.3.75,1.43,1.43,0,0,0,1.13-.56,2.62,2.62,0,0,0,.46-1.69,2.86,2.86,0,0,0-.45-1.8A1.41,1.41,0,0,0,150.2,34a1.45,1.45,0,0,0-1.15.54A2.48,2.48,0,0,0,148.59,36.2Z" transform="translate(-0.16 -0.08)" fill="#fff"/><path d="M154.84,40v-1.5l2.72-3.13q.67-.77,1-1.08l-.88,0-2.56,0V32.73h6v1.36l-2.78,3.19-1,1.06,1,0h3V40Z" transform="translate(-0.16 -0.08)" fill="#fff"/><path d="M164.05,34.94l-1.75-.31a2.69,2.69,0,0,1,1-1.56,3.66,3.66,0,0,1,2.13-.51,4.44,4.44,0,0,1,1.91.31,1.91,1.91,0,0,1,.89.77,4,4,0,0,1,.25,1.72l0,2.24a6.89,6.89,0,0,0,.1,1.41,4.1,4.1,0,0,0,.34,1H167q-.08-.2-.18-.57c0-.12-.06-.19-.07-.23a3.52,3.52,0,0,1-1.05.72,3.06,3.06,0,0,1-1.2.24,2.46,2.46,0,0,1-1.77-.61,2.18,2.18,0,0,1-.35-2.63,1.9,1.9,0,0,1,.82-.74,6.8,6.8,0,0,1,1.53-.45,11.31,11.31,0,0,0,1.87-.47v-.19a1,1,0,0,0-.28-.79,1.6,1.6,0,0,0-1-.24,1.41,1.41,0,0,0-.8.2A1.44,1.44,0,0,0,164.05,34.94Zm2.57,1.56c-.25.08-.64.18-1.17.29a3.81,3.81,0,0,0-1,.34.79.79,0,0,0-.37.67.94.94,0,0,0,.3.7,1,1,0,0,0,.76.3,1.64,1.64,0,0,0,1-.35,1.13,1.13,0,0,0,.46-.63,3.8,3.8,0,0,0,.08-.94Z" transform="translate(-0.16 -0.08)" fill="#fff"/><path d="M177,40h-1.92V36.28a5.88,5.88,0,0,0-.12-1.52,1.1,1.1,0,0,0-.4-.54,1.23,1.23,0,0,0-.67-.19,1.53,1.53,0,0,0-.89.27,1.42,1.42,0,0,0-.55.73,6.16,6.16,0,0,0-.15,1.67V40h-1.92V32.73h1.79v1.06a3,3,0,0,1,3.55-1,2,2,0,0,1,.8.58,2.32,2.32,0,0,1,.38.81,6.09,6.09,0,0,1,.1,1.29Z" transform="translate(-0.16 -0.08)" fill="#fff"/><path d="M179,31.74V30h1.92v1.78ZM179,40V32.73h1.92V40Z" transform="translate(-0.16 -0.08)" fill="#fff"/><path d="M184.27,34.94l-1.74-.31a2.68,2.68,0,0,1,1-1.56,3.69,3.69,0,0,1,2.14-.51,4.47,4.47,0,0,1,1.91.31,2,2,0,0,1,.89.77,4,4,0,0,1,.25,1.72l0,2.24A7.92,7.92,0,0,0,188.8,39a4.16,4.16,0,0,0,.35,1h-1.9c-.05-.13-.11-.32-.19-.57l-.06-.23a3.44,3.44,0,0,1-1.06.72,3,3,0,0,1-1.19.24,2.46,2.46,0,0,1-1.77-.61,2.14,2.14,0,0,1-.35-2.63,1.84,1.84,0,0,1,.82-.74,6.49,6.49,0,0,1,1.53-.45,10.85,10.85,0,0,0,1.86-.47v-.19a1,1,0,0,0-.27-.79,1.6,1.6,0,0,0-1-.24,1.41,1.41,0,0,0-.8.2A1.45,1.45,0,0,0,184.27,34.94Zm2.57,1.56a11.19,11.19,0,0,1-1.16.29,3.57,3.57,0,0,0-1.05.34.8.8,0,0,0-.38.67.94.94,0,0,0,.3.7,1.06,1.06,0,0,0,.77.3,1.64,1.64,0,0,0,1-.35,1.18,1.18,0,0,0,.46-.63,4,4,0,0,0,.07-.94Z" transform="translate(-0.16 -0.08)" fill="#fff"/><path d="M194.58,40V30.05h2V38.3h5V40Z" transform="translate(-0.16 -0.08)" fill="#fff"/><path d="M204.5,34.94l-1.74-.31a2.63,2.63,0,0,1,1-1.56,3.68,3.68,0,0,1,2.13-.51,4.49,4.49,0,0,1,1.92.31,1.88,1.88,0,0,1,.88.77,3.94,3.94,0,0,1,.26,1.72l0,2.24A7.92,7.92,0,0,0,209,39a4.16,4.16,0,0,0,.35,1h-1.9c0-.13-.12-.32-.19-.57a1.32,1.32,0,0,0-.07-.23,3.52,3.52,0,0,1-1.05.72,3,3,0,0,1-1.2.24,2.45,2.45,0,0,1-1.76-.61,2,2,0,0,1-.65-1.54,2.09,2.09,0,0,1,.29-1.09,1.92,1.92,0,0,1,.83-.74,6.49,6.49,0,0,1,1.53-.45,11.11,11.11,0,0,0,1.86-.47v-.19a1,1,0,0,0-.27-.79,1.62,1.62,0,0,0-1-.24,1.39,1.39,0,0,0-.8.2A1.45,1.45,0,0,0,204.5,34.94Zm2.57,1.56a10.87,10.87,0,0,1-1.17.29,3.58,3.58,0,0,0-1,.34.8.8,0,0,0-.38.67.94.94,0,0,0,.3.7,1,1,0,0,0,.77.3,1.68,1.68,0,0,0,1-.35,1.24,1.24,0,0,0,.46-.63,4,4,0,0,0,.07-.94Z" transform="translate(-0.16 -0.08)" fill="#fff"/><path d="M210.18,37.91l1.92-.29a1.45,1.45,0,0,0,.5.85,1.71,1.71,0,0,0,1.06.29,1.93,1.93,0,0,0,1.12-.27A.61.61,0,0,0,215,38a.53.53,0,0,0-.14-.37,1.55,1.55,0,0,0-.64-.25,10.12,10.12,0,0,1-2.95-.94,1.87,1.87,0,0,1-.86-1.63,2,2,0,0,1,.75-1.59,3.5,3.5,0,0,1,2.31-.64,4,4,0,0,1,2.21.49,2.43,2.43,0,0,1,1,1.43l-1.81.34a1.14,1.14,0,0,0-.44-.65,1.64,1.64,0,0,0-.93-.23,2.07,2.07,0,0,0-1.08.21.45.45,0,0,0-.22.39.41.41,0,0,0,.19.35,6.93,6.93,0,0,0,1.79.54,5.28,5.28,0,0,1,2.15.86,1.77,1.77,0,0,1,.6,1.43,2.19,2.19,0,0,1-.84,1.71,3.67,3.67,0,0,1-2.46.72,4,4,0,0,1-2.35-.6A2.73,2.73,0,0,1,210.18,37.91Z" transform="translate(-0.16 -0.08)" fill="#fff"/><path d="M223.42,40V38.9a2.73,2.73,0,0,1-1,.91,2.83,2.83,0,0,1-1.36.34,2.7,2.7,0,0,1-1.31-.32,1.92,1.92,0,0,1-.84-.9,4,4,0,0,1-.26-1.61V32.73h1.92v3.33a9.55,9.55,0,0,0,.1,1.88,1,1,0,0,0,.39.54,1.15,1.15,0,0,0,.71.21,1.5,1.5,0,0,0,.88-.27,1.44,1.44,0,0,0,.54-.67,8.18,8.18,0,0,0,.14-2V32.73h1.92V40Z" transform="translate(-0.16 -0.08)" fill="#fff"/><path d="M76.27,48.54V46.76h1.92v1.78Zm0,8.25V49.53h1.92v7.26Z" transform="translate(-0.16 -0.08)" fill="#fff"/><path d="M88.73,53.1V51.41h4.36v4a5.45,5.45,0,0,1-1.84,1.09A6.79,6.79,0,0,1,88.8,57a5.5,5.5,0,0,1-2.74-.66,4.16,4.16,0,0,1-1.75-1.89,6,6,0,0,1-.59-2.67A5.85,5.85,0,0,1,84.37,49a4.47,4.47,0,0,1,1.93-1.87,5.19,5.19,0,0,1,2.39-.5,4.74,4.74,0,0,1,2.92.79A3.52,3.52,0,0,1,93,49.54l-2,.38a2.09,2.09,0,0,0-.8-1.17,2.43,2.43,0,0,0-1.46-.43,2.73,2.73,0,0,0-2.1.84,3.52,3.52,0,0,0-.79,2.5,3.89,3.89,0,0,0,.8,2.67,2.62,2.62,0,0,0,2.07.9A3.64,3.64,0,0,0,90,55a4.43,4.43,0,0,0,1.1-.61V53.1Z" transform="translate(-0.16 -0.08)" fill="#fff"/><path d="M99.15,54.47l1.91.33a3.17,3.17,0,0,1-1.16,1.6,3.44,3.44,0,0,1-2,.55,3.24,3.24,0,0,1-2.8-1.24,4.13,4.13,0,0,1-.72-2.5,4,4,0,0,1,1-2.83,3.09,3.09,0,0,1,2.38-1,3.25,3.25,0,0,1,2.56,1.07,4.75,4.75,0,0,1,.89,3.28H96.35A1.92,1.92,0,0,0,96.82,55a1.42,1.42,0,0,0,1.1.47,1.19,1.19,0,0,0,.76-.24A1.55,1.55,0,0,0,99.15,54.47Zm.11-1.94a1.87,1.87,0,0,0-.43-1.26,1.34,1.34,0,0,0-1-.44,1.32,1.32,0,0,0-1,.46,1.75,1.75,0,0,0-.41,1.24Z" transform="translate(-0.16 -0.08)" fill="#fff"/><path d="M102.28,53.05a3.87,3.87,0,0,1,.48-1.85,3.26,3.26,0,0,1,1.33-1.37,4,4,0,0,1,1.93-.47,3.63,3.63,0,0,1,2.7,1.07,3.68,3.68,0,0,1,1.06,2.71,3.76,3.76,0,0,1-1.07,2.73A3.58,3.58,0,0,1,106,57a4.26,4.26,0,0,1-1.91-.45,3.07,3.07,0,0,1-1.37-1.32A4.38,4.38,0,0,1,102.28,53.05Zm2,.11a2.35,2.35,0,0,0,.52,1.65,1.68,1.68,0,0,0,2.52,0,2.44,2.44,0,0,0,.51-1.67,2.39,2.39,0,0,0-.51-1.64,1.68,1.68,0,0,0-2.52,0A2.38,2.38,0,0,0,104.25,53.16Z" transform="translate(-0.16 -0.08)" fill="#fff"/><path d="M117.94,56.79h-1.79V55.72a3,3,0,0,1-1,.93,2.75,2.75,0,0,1-1.23.3,2.78,2.78,0,0,1-2.14-1,4.12,4.12,0,0,1-.89-2.81,4.06,4.06,0,0,1,.87-2.81,2.83,2.83,0,0,1,2.19-1,2.74,2.74,0,0,1,2.11,1V46.76h1.92ZM112.81,53a3.39,3.39,0,0,0,.32,1.68,1.46,1.46,0,0,0,1.3.75,1.43,1.43,0,0,0,1.13-.56,2.62,2.62,0,0,0,.46-1.69,2.86,2.86,0,0,0-.45-1.8,1.41,1.41,0,0,0-1.15-.55,1.45,1.45,0,0,0-1.15.54A2.53,2.53,0,0,0,112.81,53Z" transform="translate(-0.16 -0.08)" fill="#fff"/><path d="M124,54.47l1.91.33a3.13,3.13,0,0,1-1.17,1.6,3.38,3.38,0,0,1-2,.55,3.24,3.24,0,0,1-2.8-1.24,4.13,4.13,0,0,1-.72-2.5,4,4,0,0,1,1-2.83,3.09,3.09,0,0,1,2.38-1,3.25,3.25,0,0,1,2.56,1.07,4.75,4.75,0,0,1,.89,3.28h-4.81a1.92,1.92,0,0,0,.47,1.33,1.42,1.42,0,0,0,1.1.47,1.19,1.19,0,0,0,.76-.24A1.55,1.55,0,0,0,124,54.47Zm.11-1.94a1.87,1.87,0,0,0-.43-1.26,1.34,1.34,0,0,0-1-.44,1.32,1.32,0,0,0-1,.46,1.75,1.75,0,0,0-.41,1.24Z" transform="translate(-0.16 -0.08)" fill="#fff"/><path d="M126.85,56.79v-1.5l2.72-3.13q.66-.77,1-1.08l-.88,0-2.57,0V49.53h6v1.36l-2.77,3.2-1,1,1,0h3v1.69Z" transform="translate(-0.16 -0.08)" fill="#fff"/><path d="M136.5,49.53v7a7.32,7.32,0,0,1-.18,2,1.59,1.59,0,0,1-.7.89,2.48,2.48,0,0,1-1.32.32,4.55,4.55,0,0,1-.61,0,5.46,5.46,0,0,1-.72-.15l.34-1.64.25,0,.22,0a.83.83,0,0,0,.49-.13.65.65,0,0,0,.25-.3,5.18,5.18,0,0,0,.06-1.07V49.53Zm-1.92-1V46.76h1.92v1.78Z" transform="translate(-0.16 -0.08)" fill="#fff"/><path d="M138.51,48.54V46.76h1.92v1.78Zm0,8.25V49.53h1.92v7.26Z" transform="translate(-0.16 -0.08)" fill="#fff"/><path d="M146.36,56.79V46.85h2V55.1h5v1.69Z" transform="translate(-0.16 -0.08)" fill="#fff"/><path d="M159,54.47l1.92.33a3.19,3.19,0,0,1-1.17,1.6,3.38,3.38,0,0,1-2,.55,3.23,3.23,0,0,1-2.8-1.24,4.13,4.13,0,0,1-.72-2.5,4,4,0,0,1,.94-2.83,3.12,3.12,0,0,1,2.39-1,3.21,3.21,0,0,1,2.55,1.07,4.7,4.7,0,0,1,.9,3.28h-4.81a2,2,0,0,0,.46,1.33,1.45,1.45,0,0,0,1.11.47,1.21,1.21,0,0,0,.76-.24A1.54,1.54,0,0,0,159,54.47Zm.11-1.94a1.77,1.77,0,0,0-.43-1.26,1.31,1.31,0,0,0-1-.44,1.33,1.33,0,0,0-1,.46,1.8,1.8,0,0,0-.4,1.24Z" transform="translate(-0.16 -0.08)" fill="#fff"/><path d="M162,54.71l1.93-.29a1.36,1.36,0,0,0,.5.85,1.64,1.64,0,0,0,1.05.29,1.93,1.93,0,0,0,1.12-.27.61.61,0,0,0,.25-.51.52.52,0,0,0-.13-.37,1.62,1.62,0,0,0-.65-.25,9.91,9.91,0,0,1-2.94-.94,1.84,1.84,0,0,1-.86-1.63A2,2,0,0,1,163,50a3.54,3.54,0,0,1,2.31-.64,4,4,0,0,1,2.22.49,2.46,2.46,0,0,1,1,1.43l-1.81.34a1.09,1.09,0,0,0-.44-.65,1.62,1.62,0,0,0-.93-.23,2.09,2.09,0,0,0-1.08.21.45.45,0,0,0-.22.39.41.41,0,0,0,.19.35,6.91,6.91,0,0,0,1.8.54,5.44,5.44,0,0,1,2.14.86,1.78,1.78,0,0,1,.6,1.43,2.21,2.21,0,0,1-.83,1.71,3.7,3.7,0,0,1-2.47.72,4.07,4.07,0,0,1-2.35-.6A2.77,2.77,0,0,1,162,54.71Zm2.77-6.07.95-2h2.15l-1.88,2Z" transform="translate(-0.16 -0.08)" fill="#fff"/><path d="M177,56.79h-1.92V53.08a5.88,5.88,0,0,0-.12-1.52,1,1,0,0,0-.4-.54,1.2,1.2,0,0,0-.67-.19,1.53,1.53,0,0,0-.89.27,1.35,1.35,0,0,0-.54.73,6.16,6.16,0,0,0-.15,1.67v3.29H170.4V49.53h1.78v1.06a3,3,0,0,1,3.56-1,1.89,1.89,0,0,1,.79.59,2,2,0,0,1,.38.8,6.09,6.09,0,0,1,.1,1.29Z" transform="translate(-0.16 -0.08)" fill="#fff"/><path d="M183.17,54.47l1.91.33a3.11,3.11,0,0,1-1.16,1.6,3.44,3.44,0,0,1-2,.55,3.24,3.24,0,0,1-2.8-1.24,4.13,4.13,0,0,1-.72-2.5,4,4,0,0,1,.95-2.83,3.09,3.09,0,0,1,2.38-1,3.25,3.25,0,0,1,2.56,1.07,4.75,4.75,0,0,1,.89,3.28h-4.81a1.92,1.92,0,0,0,.47,1.33,1.42,1.42,0,0,0,1.1.47,1.19,1.19,0,0,0,.76-.24A1.55,1.55,0,0,0,183.17,54.47Zm.11-1.94a1.87,1.87,0,0,0-.43-1.26,1.34,1.34,0,0,0-1-.44,1.32,1.32,0,0,0-1,.46,1.75,1.75,0,0,0-.4,1.24Z" transform="translate(-0.16 -0.08)" fill="#fff"/><path d="M188.63,49.53v7a7.32,7.32,0,0,1-.18,2,1.59,1.59,0,0,1-.7.89,2.48,2.48,0,0,1-1.32.32,4.55,4.55,0,0,1-.61,0,5.46,5.46,0,0,1-.72-.15l.34-1.64.25,0,.23,0a.82.82,0,0,0,.48-.13.6.6,0,0,0,.25-.3,5.18,5.18,0,0,0,.06-1.07V49.53Zm-1.92-1V46.76h1.92v1.78Z" transform="translate(-0.16 -0.08)" fill="#fff"/></g></g></svg>